<svg xmlns="http://www.w3.org/2000/svg" version="1.1" width="3300" height="2000"><g id="Notes"><style>
    text {
      font-family: monospace;
      text-anchor: middle;
    }
    text.emphasis {
      font-weight:bold;
    }
    text.lanchor {
      text-anchor: start;
    }
  </style><rect height="2200" id="artboard" fill="white" width="3300" x="0" y="0"/><line id="" style="fill:none;stroke:black;stroke-width:0.5;" x1="263" x2="3036" y1="292" y2="292"/><text class="lanchor emphasis" transform="matrix(1 0 0 1 263 322)">Weight/Scale Variations</text><text transform="matrix(1 0 0 1 559.711 322)">Ultralight</text><text transform="matrix(1 0 0 1 856.422 322)">Thin</text><text transform="matrix(1 0 0 1 1153.13 322)">Light</text><text transform="matrix(1 0 0 1 1449.84 322)">Regular</text><text transform="matrix(1 0 0 1 1746.56 322)">Medium</text><text transform="matrix(1 0 0 1 2043.27 322)">Semibold</text><text transform="matrix(1 0 0 1 2339.98 322)">Bold</text><text transform="matrix(1 0 0 1 2636.69 322)">Heavy</text><text transform="matrix(1 0 0 1 2933.4 322)">Black</text><text id="template-version" style="text-anchor: end;" transform="matrix(1 0 0 1 3036 1933)">Template v.1.0</text><text class="lanchor" transform="matrix(1 0 0 1 263 726)">Small</text><text class="lanchor" transform="matrix(1 0 0 1 263 1156)">Medium</text><text class="lanchor" transform="matrix(1 0 0 1 263 1586)">Large</text></g><g id="Guides"><g id="H-reference" style="fill:#27AAE1;stroke:none;" transform="matrix(1 0 0 1 339 696)"><path d="M 54.9316 0 L 57.666 0 L 30.5664 -70.459 L 28.0762 -70.459 L 0.976562 0 L 3.66211 0 L 12.9395 -24.4629 L 45.7031 -24.4629 Z M 29.1992 -67.0898 L 29.4434 -67.0898 L 44.8242 -26.709 L 13.8184 -26.709 Z"/></g><line id="Baseline-S" style="fill:none;stroke:#27AAE1;opacity:1;stroke-width:0.577;" x1="263" x2="3036" y1="696" y2="696"/><line id="Capline-S" style="fill:none;stroke:#27AAE1;opacity:1;stroke-width:0.577;" x1="263" x2="3036" y1="625.541" y2="625.541"/><g id="H-reference" style="fill:#27AAE1;stroke:none;" transform="matrix(1 0 0 1 339 1126)"><path d="M 54.9316 0 L 57.666 0 L 30.5664 -70.459 L 28.0762 -70.459 L 0.976562 0 L 3.66211 0 L 12.9395 -24.4629 L 45.7031 -24.4629 Z M 29.1992 -67.0898 L 29.4434 -67.0898 L 44.8242 -26.709 L 13.8184 -26.709 Z"/></g><line id="Baseline-M" style="fill:none;stroke:#27AAE1;opacity:1;stroke-width:0.577;" x1="263" x2="3036" y1="1126" y2="1126"/><line id="Capline-M" style="fill:none;stroke:#27AAE1;opacity:1;stroke-width:0.577;" x1="263" x2="3036" y1="1055.54" y2="1055.54"/><g id="H-reference" style="fill:#27AAE1;stroke:none;" transform="matrix(1 0 0 1 339 1556)"><path d="M 54.9316 0 L 57.666 0 L 30.5664 -70.459 L 28.0762 -70.459 L 0.976562 0 L 3.66211 0 L 12.9395 -24.4629 L 45.7031 -24.4629 Z M 29.1992 -67.0898 L 29.4434 -67.0898 L 44.8242 -26.709 L 13.8184 -26.709 Z"/></g><line id="Baseline-L" style="fill:none;stroke:#27AAE1;opacity:1;stroke-width:0.577;" x1="263" x2="3036" y1="1556" y2="1556"/><line id="Capline-L" style="fill:none;stroke:#27AAE1;opacity:1;stroke-width:0.577;" x1="263" x2="3036" y1="1485.54" y2="1485.54"/><rect height="119.336" id="left-margin" style="fill:darkred;stroke:none;opacity:0.4;" width="12.4512" x="1394.06" y="1030.79"/><rect height="119.336" id="right-margin" style="fill:darkgreen;stroke:none;opacity:0.4;" width="12.4512" x="1502.5112" y="1030.79"/><rect x="1406.5112" y="1045" width="96" height="96" fill="none" stroke="blue" stroke-dasharray="5"/><rect x="1394.06" y="1030.79" width="120.9024" height="119.336" fill="none" stroke="blue"/></g><g id="Symbols"><g id="Bold-L" transform="matrix(1 0 0 1 2266 1556)"><path d="M76.764 26.851 Q50.794 26.851 32.862 8.722 Q14.93 -9.406 15.158 -35.391 H30.315 Q30.501 -15.832 43.861 -2.069 Q57.221 11.694 76.755 11.694 Q96.428 11.694 110.295 -2.226 Q124.163 -16.145 124.163 -36.007 Q124.163 -55.386 110.235 -68.77 Q96.307 -82.154 76.755 -82.154 Q67.08 -82.154 58.453 -78.203 Q49.826 -74.252 43.215 -67.48 H56.76 V-55.709 H19.834 V-92.312 H31.283 V-76.994 Q40.151 -86.507 51.842 -91.99 Q63.532 -97.472 76.755 -97.472 Q89.655 -97.472 101.023 -92.554 Q112.391 -87.636 120.976 -79.249 Q129.561 -70.863 134.441 -59.658 Q139.32 -48.452 139.32 -35.552 Q139.32 -22.652 134.441 -11.286 Q129.561 0.08 120.976 8.548 Q112.391 17.015 101.023 21.933 Q89.655 26.851 76.764 26.851 Z M96.75 -7.979  71.918 -32.489 V-67.964 H83.366 V-37.487 L105.135 -16.364 L96.75 -7.979 Z"/></g><g id="Semibold-L" transform="matrix(1 0 0 1 1970.27 1556)"><path d="M76.83 25.099 Q51.705 25.099 34.278 7.455 Q16.852 -10.188 16.98 -35.391 H29.754 Q29.859 -15.572 43.44 -1.624 Q57.021 12.325 76.825 12.325 Q96.848 12.325 110.856 -1.782 Q124.864 -15.89 124.864 -36.02 Q124.864 -55.667 110.752 -69.226 Q96.64 -82.785 76.825 -82.785 Q66.589 -82.785 57.542 -78.378 Q48.494 -73.972 41.673 -66.569 H56.69 V-55.709 H21.166 V-90.981 H31.843 V-74.891 Q40.502 -84.545 52.122 -90.097 Q63.743 -95.65 76.825 -95.65 Q89.375 -95.65 100.427 -90.907 Q111.48 -86.164 119.803 -78.023 Q128.126 -69.883 132.881 -58.992 Q137.638 -48.102 137.638 -35.552 Q137.638 -23.003 132.881 -11.951 Q128.126 -0.9 119.803 7.322 Q111.48 15.543 100.427 20.321 Q89.375 25.099 76.83 25.099 Z M97.101 -8.399  72.268 -32.909 V-67.964 H82.946 V-37.487 L104.855 -16.153 L97.101 -8.399 Z"/></g><g id="Medium-L" transform="matrix(1 0 0 1 1674.31 1556)"><path d="M76.88 23.784 Q52.389 23.784 35.341 6.505 Q18.293 -10.774 18.347 -35.391 H29.333 Q29.378 -15.378 43.124 -1.29 Q56.87 12.798 76.878 12.798 Q97.164 12.798 111.277 -1.45 Q125.389 -15.698 125.389 -36.029 Q125.389 -55.877 111.139 -69.568 Q96.889 -83.258 76.878 -83.258 Q66.221 -83.258 56.858 -78.51 Q47.495 -73.762 40.516 -65.885 H56.637 V-55.709 H22.165 V-89.981 H32.264 V-73.313 Q40.765 -83.072 52.333 -88.677 Q63.901 -94.283 76.878 -94.283 Q89.164 -94.283 99.98 -89.671 Q110.796 -85.06 118.922 -77.104 Q127.049 -69.148 131.712 -58.493 Q136.375 -47.839 136.375 -35.552 Q136.375 -23.266 131.712 -12.45 Q127.049 -1.635 118.922 6.402 Q110.796 14.439 99.98 19.111 Q89.164 23.784 76.88 23.784 Z M97.363 -8.715  72.531 -33.225 V-67.964 H82.63 V-37.487 L104.644 -15.996 L97.363 -8.715 Z"/></g><g id="Regular-L" transform="matrix(1 0 0 1 1378.56 1556)"><path d="M76.916 22.82 Q52.89 22.82 36.12 5.808 Q19.35 -11.204 19.35 -35.391 H29.025 Q29.025 -15.235 42.892 -1.045 Q56.76 13.145 76.916 13.145 Q97.395 13.145 111.585 -1.206 Q125.775 -15.557 125.775 -36.036 Q125.775 -56.031 111.424 -69.818 Q97.073 -83.605 76.916 -83.605 Q65.951 -83.605 56.357 -78.606 Q46.763 -73.607 39.668 -65.384 H56.599 V-55.709 H22.898 V-89.249 H32.572 V-72.156 Q40.958 -81.992 52.487 -87.636 Q64.016 -93.28 76.916 -93.28 Q89.01 -93.28 99.653 -88.765 Q110.295 -84.25 118.277 -76.429 Q126.259 -68.609 130.854 -58.127 Q135.45 -47.646 135.45 -35.552 Q135.45 -23.459 130.854 -12.816 Q126.259 -2.174 118.277 5.728 Q110.295 13.629 99.653 18.224 Q89.01 22.82 76.916 22.82 Z M97.556 -8.946  72.724 -33.456 V-67.964 H82.399 V-37.487 L104.49 -15.88 L97.556 -8.946 Z"/></g><g id="Light-L" transform="matrix(1 0 0 1 1082.77 1556)"><path d="M76.916 19.595 Q54.689 19.595 38.942 4.165 Q23.195 -11.266 22.575 -33.593 H29.893 Q30.638 -14.429 44.133 -1.076 Q57.628 12.277 76.916 12.277 Q96.961 12.277 110.872 -1.764 Q124.783 -15.806 124.783 -35.85 Q124.783 -55.535 110.772 -69.136 Q96.762 -82.737 76.916 -82.737 Q66.509 -82.737 57.287 -78.172 Q48.065 -73.607 41.094 -65.942 H57.343 V-58.624 H28.294 V-87.636 H35.612 V-70.916 Q43.562 -79.822 54.286 -84.938 Q65.009 -90.055 76.916 -90.055 Q88.328 -90.055 98.35 -85.788 Q108.372 -81.521 115.889 -74.104 Q123.406 -66.686 127.753 -56.763 Q132.101 -46.84 132.101 -35.49 Q132.101 -24.079 127.753 -14.026 Q123.406 -3.972 115.889 3.464 Q108.372 10.9 98.35 15.247 Q88.328 19.595 76.916 19.595 Z M98.176 -9.877  73.902 -33.89 V-67.84 H81.22 V-36.929 L103.436 -15.136 L98.176 -9.877 Z"/></g><g id="Thin-L" transform="matrix(1 0 0 1 787.282 1556)"><path d="M76.916 16.37 Q56.487 16.37 41.764 2.521 Q27.04 -11.328 25.8 -31.794 H30.762 Q32.25 -13.622 45.373 -1.107 Q58.497 11.408 76.916 11.408 Q96.527 11.408 110.159 -2.323 Q123.79 -16.054 123.79 -35.664 Q123.79 -55.039 110.121 -68.454 Q96.452 -81.868 76.916 -81.868 Q67.068 -81.868 58.217 -77.738 Q49.367 -73.607 42.52 -66.5 H58.087 V-61.539 H33.689 V-86.024 H38.65 V-69.675 Q46.167 -77.651 56.084 -82.241 Q66.001 -86.83 76.916 -86.83 Q87.646 -86.83 97.048 -82.811 Q106.45 -78.792 113.501 -71.778 Q120.553 -64.764 124.653 -55.399 Q128.752 -46.034 128.752 -35.428 Q128.752 -24.699 124.653 -15.235 Q120.553 -5.771 113.501 1.2 Q106.45 8.171 97.048 12.271 Q87.646 16.37 76.916 16.37 Z M98.797 -10.807  75.08 -34.325 V-67.716 H80.042 V-36.371 L102.381 -14.392 L98.797 -10.807 Z"/></g><g id="Ultralight-L" transform="matrix(1 0 0 1 491.205 1556)"><path d="M76.916 14.435 Q57.566 14.435 43.457 1.535 Q29.348 -11.365 27.735 -30.715 H31.283 Q33.218 -13.139 46.117 -1.126 Q59.017 10.888 76.916 10.888 Q96.266 10.888 109.731 -2.657 Q123.195 -16.202 123.195 -35.552 Q123.195 -54.741 109.731 -68.044 Q96.266 -81.347 76.916 -81.347 Q67.403 -81.347 58.776 -77.477 Q50.149 -73.607 43.376 -66.835 H58.534 V-63.287 H36.926 V-85.056 H40.474 V-68.931 Q47.73 -76.349 57.163 -80.622 Q66.596 -84.895 76.916 -84.895 Q87.236 -84.895 96.266 -81.025 Q105.296 -77.155 112.069 -70.382 Q118.841 -63.61 122.792 -54.58 Q126.743 -45.55 126.743 -35.391 Q126.743 -25.071 122.792 -15.961 Q118.841 -6.85 112.069 -0.158 Q105.296 6.534 96.266 10.484 Q87.236 14.435 76.916 14.435 Z M99.169 -11.365  75.788 -34.585 V-67.641 H79.335 V-36.036 L101.749 -13.945 L99.169 -11.365 Z"/></g><g id="Bold-M" transform="matrix(1 0 0 1 2281.8 1126)"><path d="M59.75 14.02 Q40.75 14.02 26.688 1.395 Q12.625 -11.23 10.875 -30.23 H26.75 Q28.625 -17.855 37.938 -9.792 Q47.25 -1.73 59.75 -1.73 Q73.75 -1.73 83.5 -11.48 Q93.25 -21.23 93.25 -35.23 Q93.25 -49.23 83.5 -58.98 Q73.75 -68.73 59.75 -68.73 Q52.625 -68.73 46.125 -65.792 Q39.625 -62.855 34.875 -57.355 H45.125 V-45.23 H11.75 V-78.355 H23.625 V-68.48 Q30.625 -76.23 39.938 -80.355 Q49.25 -84.48 59.75 -84.48 Q69.875 -84.48 78.875 -80.605 Q87.875 -76.73 94.562 -70.042 Q101.25 -63.355 105.125 -54.355 Q109 -45.355 109 -35.23 Q109 -25.105 105.125 -16.105 Q101.25 -7.105 94.562 -0.417 Q87.875 6.27 78.875 10.145 Q69.875 14.02 59.75 14.02 Z M73.125 -13.23  54.125 -32.23 V-60.23 H66 V-37.23 L81.625 -21.73 L73.125 -13.23 Z"/></g><g id="Semibold-M" transform="matrix(1 0 0 1 1985.97 1126)"><path d="M59.859 12.172 Q41.62 12.172 28.101 0.064 Q14.581 -12.045 12.777 -30.23 H26.206 Q28.027 -17.583 37.557 -9.331 Q47.087 -1.078 59.859 -1.078 Q74.13 -1.078 84.071 -11.018 Q94.011 -20.958 94.011 -35.23 Q94.011 -49.502 84.071 -59.442 Q74.13 -69.382 59.859 -69.382 Q52.081 -69.382 45.147 -65.983 Q38.212 -62.583 33.299 -56.431 H45.071 V-45.23 H13.163 V-76.996 H24.223 V-66.306 Q30.951 -74.165 40.209 -78.399 Q49.467 -82.632 59.859 -82.632 Q69.658 -82.632 78.304 -78.893 Q86.951 -75.154 93.367 -68.738 Q99.783 -62.322 103.522 -53.676 Q107.261 -45.029 107.261 -35.23 Q107.261 -25.431 103.522 -16.784 Q99.783 -8.137 93.367 -1.722 Q86.951 4.694 78.304 8.433 Q69.658 12.172 59.859 12.172 Z M73.505 -13.665  54.505 -32.665 V-60.23 H65.565 V-37.23 L81.353 -21.513 L73.505 -13.665 Z"/></g><g id="Medium-M" transform="matrix(1 0 0 1 1689.91 1126)"><path d="M59.94 10.786 Q42.272 10.786 29.16 -0.935 Q16.049 -12.657 14.204 -30.23 H25.799 Q27.579 -17.379 37.272 -8.984 Q46.965 -0.589 59.94 -0.589 Q74.416 -0.589 84.499 -10.672 Q94.582 -20.754 94.582 -35.23 Q94.582 -49.705 84.499 -59.788 Q74.416 -69.871 59.94 -69.871 Q51.674 -69.871 44.413 -66.125 Q37.152 -62.379 32.117 -55.738 H45.03 V-45.23 H14.223 V-75.977 H24.671 V-64.676 Q31.196 -72.616 40.413 -76.931 Q49.63 -81.246 59.94 -81.246 Q69.495 -81.246 77.876 -77.609 Q86.258 -73.972 92.47 -67.76 Q98.682 -61.548 102.319 -53.166 Q105.957 -44.784 105.957 -35.23 Q105.957 -25.676 102.319 -17.294 Q98.682 -8.912 92.47 -2.7 Q86.258 3.512 77.876 7.149 Q69.495 10.786 59.94 10.786 Z M73.791 -13.991  54.791 -32.991 V-60.23 H65.239 V-37.23 L81.15 -21.35 L73.791 -13.991 Z"/></g><g id="Regular-M" transform="matrix(1 0 0 1 1394.06 1126)"><path d="M60 9.77 Q42.75 9.77 29.938 -1.667 Q17.125 -13.105 15.25 -30.23 H25.5 Q27.25 -17.23 37.062 -8.73 Q46.875 -0.23 60 -0.23 Q74.625 -0.23 84.812 -10.417 Q95 -20.605 95 -35.23 Q95 -49.855 84.812 -60.042 Q74.625 -70.23 60 -70.23 Q51.375 -70.23 43.875 -66.23 Q36.375 -62.23 31.25 -55.23 H45 V-45.23 H15 V-75.23 H25 V-63.48 Q31.375 -71.48 40.562 -75.855 Q49.75 -80.23 60 -80.23 Q69.375 -80.23 77.562 -76.667 Q85.75 -73.105 91.812 -67.042 Q97.875 -60.98 101.438 -52.792 Q105 -44.605 105 -35.23 Q105 -25.855 101.438 -17.667 Q97.875 -9.48 91.812 -3.417 Q85.75 2.645 77.562 6.208 Q69.375 9.77 60 9.77 Z M74 -14.23  55 -33.23 V-60.23 H65 V-37.23 L81 -21.23 L74 -14.23 Z"/></g><g id="Light-M" transform="matrix(1 0 0 1 1098.18 1126)"><path d="M59.904 7.27 Q43.663 7.27 31.596 -3.422 Q19.529 -14.115 17.702 -30.23 H25.356 Q27.25 -17.278 37.014 -8.754 Q46.779 -0.23 59.904 -0.23 Q74.529 -0.23 84.716 -10.417 Q94.904 -20.605 94.904 -35.23 Q94.904 -49.855 84.716 -60.042 Q74.529 -70.23 59.904 -70.23 Q51.712 -70.23 44.548 -66.591 Q37.385 -62.951 32.212 -56.576 H45.288 V-49.076 H19.904 V-74.461 H27.404 V-62.614 Q33.49 -69.797 41.981 -73.763 Q50.471 -77.73 59.904 -77.73 Q68.75 -77.73 76.481 -74.384 Q84.211 -71.037 89.961 -65.288 Q95.711 -59.538 99.058 -51.807 Q102.404 -44.076 102.404 -35.23 Q102.404 -26.384 99.058 -18.653 Q95.711 -10.922 89.961 -5.172 Q84.211 0.578 76.481 3.924 Q68.75 7.27 59.904 7.27 Z M74.913 -15.095  56.298 -33.711 V-60.23 H63.798 V-36.749 L80.183 -20.364 L74.913 -15.095 Z"/></g><g id="Thin-M" transform="matrix(1 0 0 1 802.565 1126)"><path d="M59.808 4.77 Q44.577 4.77 33.255 -5.177 Q21.933 -15.124 20.154 -30.23 H25.212 Q27.25 -17.326 36.966 -8.778 Q46.683 -0.23 59.808 -0.23 Q74.433 -0.23 84.62 -10.417 Q94.808 -20.605 94.808 -35.23 Q94.808 -49.855 84.62 -60.042 Q74.433 -70.23 59.808 -70.23 Q52.048 -70.23 45.221 -66.951 Q38.394 -63.672 33.173 -57.922 H45.577 V-52.922 H24.808 V-73.691 H29.808 V-61.749 Q35.606 -68.115 43.399 -71.672 Q51.192 -75.23 59.808 -75.23 Q68.125 -75.23 75.399 -72.1 Q82.673 -68.97 88.111 -63.533 Q93.548 -58.095 96.678 -50.821 Q99.808 -43.547 99.808 -35.23 Q99.808 -26.913 96.678 -19.639 Q93.548 -12.365 88.111 -6.927 Q82.673 -1.49 75.399 1.64 Q68.125 4.77 59.808 4.77 Z M75.827 -15.961  57.596 -34.191 V-60.23 H62.596 V-36.268 L79.365 -19.499 L75.827 -15.961 Z"/></g><g id="Ultralight-M" transform="matrix(1 0 0 1 506.415 1126)"><path d="M59.75 3.27 Q45.125 3.27 34.25 -6.23 Q23.375 -15.73 21.625 -30.23 H25.125 Q27.25 -17.355 36.938 -8.792 Q46.625 -0.23 59.75 -0.23 Q74.375 -0.23 84.562 -10.417 Q94.75 -20.605 94.75 -35.23 Q94.75 -49.855 84.562 -60.042 Q74.375 -70.23 59.75 -70.23 Q52.25 -70.23 45.625 -67.167 Q39 -64.105 33.75 -58.73 H45.75 V-55.23 H27.75 V-73.23 H31.25 V-61.23 Q36.875 -67.105 44.25 -70.417 Q51.625 -73.73 59.75 -73.73 Q67.75 -73.73 74.75 -70.73 Q81.75 -67.73 87 -62.48 Q92.25 -57.23 95.25 -50.23 Q98.25 -43.23 98.25 -35.23 Q98.25 -27.23 95.25 -20.23 Q92.25 -13.23 87 -7.98 Q81.75 -2.73 74.75 0.27 Q67.75 3.27 59.75 3.27 Z M76.375 -16.48  58.375 -34.48 V-60.23 H61.875 V-35.98 L78.875 -18.98 L76.375 -16.48 Z"/></g><g id="Bold-S" transform="matrix(1 0 0 1 2294.23 696)"><path d="M47.143 1.261 Q31.955 1.261 21.303 -9.341 Q10.652 -19.943 10.75 -35.23 H22.289 Q22.388 -24.973 29.637 -17.675 Q36.886 -10.376 47.143 -10.376 Q57.4 -10.376 64.698 -17.675 Q71.996 -24.973 71.996 -35.23 Q71.996 -45.487 64.698 -52.785 Q57.4 -60.083 47.143 -60.083 Q42.212 -60.083 37.818 -58.397 Q33.425 -56.711 30.179 -53.476 H37.971 V-44.698 H11.638 V-70.834 H20.218 V-59.492 Q25.248 -65.212 32.102 -68.467 Q38.957 -71.721 47.143 -71.721 Q54.638 -71.721 61.309 -68.851 Q67.979 -65.981 72.936 -61.024 Q77.894 -56.066 80.764 -49.396 Q83.634 -42.725 83.634 -35.23 Q83.634 -27.734 80.764 -21.064 Q77.894 -14.394 72.936 -9.436 Q67.979 -4.479 61.309 -1.609 Q54.638 1.261 47.143 1.261 Z M56.512 -21.028  43.099 -34.441 V-54.166 H51.68 V-38.189 L62.726 -27.241 L56.512 -21.028 Z"/></g><g id="Semibold-S" transform="matrix(1 0 0 1 1998.1 696)"><path d="M47.229 -0.197 Q32.641 -0.197 22.418 -10.391 Q12.195 -20.586 12.251 -35.23 H21.86 Q21.916 -24.759 29.337 -17.31 Q36.757 -9.862 47.229 -9.862 Q57.7 -9.862 65.148 -17.31 Q72.597 -24.759 72.597 -35.23 Q72.597 -45.701 65.148 -53.15 Q57.7 -60.598 47.229 -60.598 Q41.783 -60.598 37.046 -58.547 Q32.31 -56.496 28.936 -52.747 H37.928 V-44.698 H12.753 V-69.762 H20.69 V-57.777 Q25.505 -63.583 32.317 -66.923 Q39.128 -70.263 47.229 -70.263 Q54.467 -70.263 60.858 -67.501 Q67.25 -64.738 71.993 -59.995 Q76.736 -55.251 79.499 -48.86 Q82.262 -42.468 82.262 -35.23 Q82.262 -27.992 79.499 -21.6 Q76.736 -15.209 71.993 -10.465 Q67.25 -5.722 60.858 -2.959 Q54.467 -0.197 47.229 -0.197 Z M56.812 -21.371  43.399 -34.784 V-54.166 H51.336 V-38.189 L62.511 -27.07 L56.812 -21.371 Z"/></g><g id="Medium-S" transform="matrix(1 0 0 1 1701.85 696)"><path d="M47.293 -1.29 Q33.155 -1.29 23.254 -11.179 Q13.353 -21.069 13.377 -35.23 H21.539 Q21.562 -24.598 29.112 -17.037 Q36.661 -9.476 47.293 -9.476 Q57.925 -9.476 65.486 -17.037 Q73.047 -24.598 73.047 -35.23 Q73.047 -45.862 65.486 -53.423 Q57.925 -60.984 47.293 -60.984 Q41.461 -60.984 36.467 -58.66 Q31.474 -56.335 28.003 -52.2 H37.896 V-44.698 H13.589 V-68.958 H21.044 V-56.49 Q25.698 -62.36 32.478 -65.765 Q39.257 -69.17 47.293 -69.17 Q54.338 -69.17 60.521 -66.488 Q66.703 -63.805 71.286 -59.223 Q75.868 -54.64 78.55 -48.458 Q81.233 -42.275 81.233 -35.23 Q81.233 -28.185 78.55 -22.002 Q75.868 -15.82 71.286 -11.237 Q66.703 -6.655 60.521 -3.972 Q54.338 -1.29 47.293 -1.29 Z M57.037 -21.628  43.624 -35.041 V-54.166 H51.079 V-38.189 L62.35 -26.941 L57.037 -21.628 Z"/></g><g id="Regular-S" transform="matrix(1 0 0 1 1405.73 696)"><path d="M47.34 -2.092 Q33.532 -2.092 23.867 -11.757 Q14.202 -21.422 14.202 -35.23 H21.303 Q21.303 -24.48 28.946 -16.836 Q36.59 -9.193 47.34 -9.193 Q58.09 -9.193 65.734 -16.836 Q73.377 -24.48 73.377 -35.23 Q73.377 -45.98 65.734 -53.624 Q58.09 -61.267 47.34 -61.267 Q41.225 -61.267 36.043 -58.742 Q30.86 -56.217 27.319 -51.799 H37.872 V-44.698 H14.202 V-68.368 H21.303 V-55.547 Q25.84 -61.464 32.596 -64.916 Q39.351 -68.368 47.34 -68.368 Q54.244 -68.368 60.273 -65.745 Q66.302 -63.121 70.767 -58.657 Q75.231 -54.192 77.855 -48.163 Q80.478 -42.134 80.478 -35.23 Q80.478 -28.326 77.855 -22.297 Q75.231 -16.268 70.767 -11.803 Q66.302 -7.339 60.273 -4.715 Q54.244 -2.092 47.34 -2.092 Z M57.203 -21.817  43.79 -35.23 V-54.166 H50.891 V-38.189 L62.232 -26.847 L57.203 -21.817 Z"/></g><g id="Light-S" transform="matrix(1 0 0 1 1109.75 696)"><path d="M47.264 -4.065 Q34.253 -4.065 25.176 -13.142 Q16.099 -22.219 16.137 -35.23 H21.189 Q21.303 -24.518 28.908 -16.855 Q36.514 -9.193 47.264 -9.193 Q58.014 -9.193 65.658 -16.836 Q73.301 -24.48 73.301 -35.23 Q73.301 -45.98 65.658 -53.624 Q58.014 -61.267 47.264 -61.267 Q41.491 -61.267 36.574 -59.027 Q31.657 -56.786 28.078 -52.861 H38.1 V-47.733 H18.071 V-67.761 H23.2 V-54.864 Q27.509 -60.136 33.715 -63.266 Q39.92 -66.395 47.264 -66.395 Q53.751 -66.395 59.419 -63.943 Q65.088 -61.49 69.306 -57.272 Q73.524 -53.054 75.977 -47.385 Q78.429 -41.716 78.429 -35.23 Q78.429 -28.744 75.977 -23.075 Q73.524 -17.406 69.306 -13.188 Q65.088 -8.97 59.419 -6.517 Q53.751 -4.065 47.264 -4.065 Z M57.923 -22.5  44.814 -35.609 V-54.166 H49.942 V-37.809 L61.587 -26.164 L57.923 -22.5 Z"/></g><g id="Thin-S" transform="matrix(1 0 0 1 814.015 696)"><path d="M47.188 -6.037 Q34.974 -6.037 26.485 -14.526 Q17.995 -23.016 18.071 -35.23 H21.075 Q21.303 -24.556 28.871 -16.874 Q36.438 -9.193 47.188 -9.193 Q57.938 -9.193 65.582 -16.836 Q73.225 -24.48 73.225 -35.23 Q73.225 -45.98 65.582 -53.624 Q57.938 -61.267 47.188 -61.267 Q41.756 -61.267 37.105 -59.311 Q32.454 -57.355 28.836 -53.923 H38.327 V-50.767 H21.94 V-67.154 H25.096 V-54.181 Q29.178 -58.809 34.834 -61.616 Q40.489 -64.423 47.188 -64.423 Q53.258 -64.423 58.566 -62.141 Q63.875 -59.859 67.846 -55.888 Q71.817 -51.916 74.099 -46.608 Q76.381 -41.299 76.381 -35.23 Q76.381 -29.161 74.099 -23.852 Q71.817 -18.544 67.846 -14.572 Q63.875 -10.601 58.566 -8.319 Q53.258 -6.037 47.188 -6.037 Z M58.644 -23.183  45.838 -35.989 V-54.166 H48.994 V-37.43 L60.943 -25.481 L58.644 -23.183 Z"/></g><g id="Ultralight-S" transform="matrix(1 0 0 1 517.792 696)"><path d="M47.143 -7.22 Q35.406 -7.22 27.27 -15.357 Q19.133 -23.494 19.232 -35.23 H21.007 Q21.303 -24.578 28.848 -16.886 Q36.393 -9.193 47.143 -9.193 Q57.893 -9.193 65.536 -16.836 Q73.18 -24.48 73.18 -35.23 Q73.18 -45.98 65.536 -53.624 Q57.893 -61.267 47.143 -61.267 Q41.916 -61.267 37.424 -59.482 Q32.932 -57.697 29.292 -54.56 H38.464 V-52.588 H24.262 V-66.79 H26.234 V-53.771 Q30.179 -58.012 35.505 -60.626 Q40.831 -63.239 47.143 -63.239 Q52.962 -63.239 58.054 -61.06 Q63.146 -58.88 66.97 -55.057 Q70.793 -51.234 72.973 -46.141 Q75.152 -41.049 75.152 -35.23 Q75.152 -29.411 72.973 -24.319 Q70.793 -19.226 66.97 -15.403 Q63.146 -11.58 58.054 -9.4 Q52.962 -7.22 47.143 -7.22 Z M59.076 -23.592  46.452 -36.216 V-54.166 H48.425 V-37.202 L60.556 -25.072 L59.076 -23.592 Z"/></g></g></svg>